<svg version="1.0" xmlns="http://www.w3.org/2000/svg" width="120" viewBox="0 0 307.000000 407.000000" preserveAspectRatio="xMidYMid meet">
              <g transform="translate(0.000000,407.000000) scale(0.100000,-0.100000)" fill="currentColor" stroke="none">
                <path d="M1190 4019 c-188 -38 -338 -237 -290 -385 29 -87 261 -271 470 -372
122 -58 175 -65 230 -28 49 33 80 80 80 124 0 48 -36 208 -70 308 -33 98 -86
199 -135 259 -64 78 -178 116 -285 94z" />
                <path d="M1190 2905 l0 -145 410 0 410 0 0 145 0 145 -410 0 -410 0 0 -145z" />
                <path d="M685 2605 c-16 -7 -45 -27 -64 -42 -46 -39 -49 -70 -50 -426 l-1
-287 38 16 c20 9 118 49 217 89 301 121 343 146 569 340 87 74 156 125 168
125 13 0 55 -33 107 -83 89 -85 171 -144 301 -215 76 -42 558 -262 573 -262 5
0 7 141 5 313 -3 350 -3 347 -81 411 l-39 31 -856 2 c-703 1 -862 -1 -887 -12z" />
                <path d="M1529 2324 c-52 -55 -174 -154 -274 -224 -185 -130 -420 -256 -795
-428 -384 -176 -372 -170 -365 -194 9 -28 170 -459 333 -888 65 -173 127 -339
136 -368 l18 -52 82 83 c134 136 308 242 497 302 237 74 535 75 763 0 228 -74
437 -220 566 -394 25 -33 47 -60 50 -61 5 0 473 1359 478 1389 2 14 -45 39
-225 121 -643 291 -904 443 -1144 668 l-86 81 -34 -35z" />
              </g>
            </svg>